<svg xmlns="http://www.w3.org/2000/svg" version="1.1" viewBox="0 0 754 754"><rect x="165.5" y="165.5" width="423" height="423" rx="50" ry="50" fill="#3178c6"/><path d="M427.3,502.1v41.4c6.7,3.4,14.7,6,23.9,7.8,9.2,1.7,18.9,2.6,29,2.6s19.3-.9,28.3-2.8c8.9-1.9,16.7-5,23.5-9.4,6.7-4.4,12-10,16-17.1,3.9-7,5.9-15.7,5.9-26s-1.1-14.1-3.4-19.7-5.5-10.7-9.7-15.1c-4.2-4.4-9.3-8.3-15.2-11.8-5.9-3.5-12.6-6.8-20-9.9-5.4-2.2-10.3-4.4-14.6-6.5-4.3-2.1-8-4.3-11-6.5-3-2.2-5.3-4.5-7-7-1.6-2.5-2.5-5.2-2.5-8.3s.7-5.4,2.2-7.7,3.5-4.2,6.2-5.9c2.7-1.6,5.9-2.9,9.8-3.8,3.9-.9,8.2-1.4,12.9-1.4s7.1.3,10.9.8c3.8.5,7.7,1.3,11.6,2.4,3.9,1.1,7.6,2.4,11.3,4.1,3.7,1.6,7,3.5,10.1,5.7v-38.6c-6.3-2.4-13.2-4.2-20.6-5.4s-16-1.7-25.7-1.7-19.1,1.1-27.9,3.2-16.5,5.4-23.2,9.9c-6.7,4.5-12,10.2-15.8,17.1-3.9,6.9-5.8,15.2-5.8,24.9s3.6,22.8,10.7,31.5c7.1,8.7,17.9,16.1,32.4,22.1,5.7,2.3,11,4.6,15.9,6.8s9.2,4.6,12.7,7c3.6,2.4,6.4,5,8.5,7.9,2.1,2.8,3.1,6.1,3.1,9.7s-.6,5.1-1.9,7.4-3.3,4.3-5.9,5.9-5.9,3-9.8,3.9c-3.9.9-8.5,1.4-13.8,1.4-9,0-17.8-1.6-26.6-4.7-8.8-3.1-16.9-7.9-24.4-14.2h0ZM357.8,400.2h53.1v-33.9h-147.9v33.9h52.8v151.1h42v-151.1Z" fill="#fff" fill-rule="evenodd"/></svg>