<svg xmlns="http://www.w3.org/2000/svg" width="600" height="600" viewBox="0 0 600 600">
	<style>
		path {
			fill: #000;
		}
		circle {
			fill: #FFF;
		}
		@media (prefers-color-scheme: dark) {
			path {
				fill: #fff;
			}
			circle {
				fill: #000;
			}
		}
	</style>
	 <circle cx="300" cy="300" r="300"/>
	 <path d="M351.5,448.8c-32.4-43.6-49.9-97-49.3-151.5l0-3.2c5.8-9.6,13.3-18.1,22.2-24.9v26.9h13.2v-35.3c6-3.2,12.3-5.6,19-7.3v32.8
	h13.2V251c6.3-0.7,12.7-0.7,19,0v35.2h13.2v-32.8c6.6,1.7,12.9,4.2,19,7.3v35.4h13.2v-27c9.3,7.1,17.2,16.1,23.1,26.3l11.5-6.6
	c-9.1-15.7-22.2-28.8-37.8-37.8c-8.1-4.7-16.8-8.3-25.8-10.5c-16.6-4.4-35.3-4.4-51.7,0c-9.1,2.3-17.8,5.9-25.8,10.5
	c-9.6,5.5-18.2,12.5-25.5,20.7l0-2.4c0.4-24.2,9.5-46.2,24.3-63.2l13.1,20.6l11.2-7.1l-14.7-23.1c4.1-3.5,8.4-6.7,13-9.6l14.8,23.2
	l11.2-7.1l-14.2-22.4c5.1-2.3,10.4-4.1,15.8-5.5l16.7,26.2l11.2-7.1l-13.8-21.7c3.4-0.4,6.8-0.5,10.3-0.5c13.3,0,26.3,2.6,38.5,7.8
	l5.2-12.2c-13.8-5.8-28.5-8.8-43.6-8.8c-48.8,0-90.4,31.4-105.7,75.1c-15.7-43-56.8-73.8-105.2-73.8c-15.1,0-29.8,3-43.6,8.8
	l5.2,12.2c12.2-5.2,25.1-7.8,38.5-7.8c3.5,0,6.9,0.2,10.3,0.5l-13.8,21.7l11.2,7.1l16.7-26.2c5.5,1.4,10.8,3.2,15.8,5.5l-14.2,22.3
	l11.2,7.1l14.8-23.2c4.6,2.8,8.9,6,13,9.6l-14.7,23.1l11.2,7.1l13.1-20.6c15,17.2,24.2,39.6,24.4,64.2c-7.3-8.2-15.9-15.2-25.4-20.6
	c-8.1-4.7-16.8-8.3-25.8-10.5c-16.6-4.4-35.3-4.4-51.7,0c-9.1,2.3-17.8,5.9-25.8,10.5c-15.7,9-28.8,22.1-37.9,37.8l11.5,6.6
	c5.9-10.2,13.8-19.2,23.1-26.3v27h13.2v-35.4c6-3.2,12.3-5.6,19-7.3v32.8h13.2V251c6.3-0.7,12.7-0.7,19,0v35.2h13.2v-32.8
	c6.6,1.7,12.9,4.2,19,7.4v35.3h13.2v-26.9c8.8,6.8,16.3,15.2,22.1,24.8l0,3.1c-0.5,45.7,11.1,90.7,33,130.3
	c-11.1-5-23.3-7.7-35.7-7.7c-27.9,0-54.3,13.5-70.6,36.1l10.7,7.7c13.8-19.2,36.2-30.6,59.9-30.6c23.6,0,46,11.4,59.9,30.6
	c0,0,0,0,0,0l5.4,7.4l5.4-7.4c26.1-36.1,68.2-57.7,112.7-57.7v-13.2C423.8,392.7,380.3,413.5,351.5,448.8z"/>
</svg>
